<?xml version="1.0" encoding="UTF-8"?>
<svg id="Layer_1" xmlns="http://www.w3.org/2000/svg" version="1.1" viewBox="0 0 75.29 55">
  <!-- Generator: Adobe Illustrator 30.3.0, SVG Export Plug-In . SVG Version: 2.1.3 Build 182)  -->
  <defs>
    <style>
      .st0 {
        fill: #fff;
      }
    </style>
  </defs>
  <path class="st0" d="M70.94,14.11s.09-.09.15-.11c-.82-1.49-2.7-1.56-4.18-1.79-.95-.14-1.92-.35-2.89-.5-.31-.05-.63-.12-.94-.15-.39-.04-.77.07-1.17.01-.36-.05-.7-.15-1.05-.21-.86-.16-1.71-.32-2.57-.45-3.08-.46-6.17-.89-9.26-1.33-1.7-.24-3.4-.48-5.1-.72-5.32-.76-9.04-.48-14.33.35-1.53.24-4.37.47-5.91.67-1.95.26-3.9.5-5.84.77-1.45.2-2.93.39-4.4.43-.33,0-.82-.06-1.07.2.01.02.03.05.04.07-.41-.13-.99.18-1.39.28-.74.19-1.5.21-2.26.27-.7.05-1.5.02-2.17.19-.7.18-1.32.68-1.77,1.23-.14.17-.25.34-.34.51-.02.03-.03.06-.04.09,0,.01,0,.02-.02.03l-.03.06s-.01.03-.02.04c0,0,0,.02,0,.02-.16.44-.16.94-.17,1.4,0,.46.17.8.18,1.23-.04.02-.08.02-.12.04-.14.05.53,3.58.62,3.87.08.24.23.43.31.66.09.26,0,.53,0,.8.02.64.23,1.27.34,1.9.19,1.09.36,2.17.56,3.25.07.36.13.74.19,1.1.17.96.35,1.91.47,2.88.08.63.15,1.27.3,1.89.07.3.18.58.3.83.12.24.05.34,0,.66-.03.22.03.47.07.68.13.62.3,1.23.39,1.86.13.02.17-.07.15-.18.03.16.07.32.06.48-.03,0-.05.02-.08.03-.13,1.03.49,1.96,1.08,2.75-.03-.07-.05-.18-.1-.24.01.01.03.03.04.04l.15.15.15.13.02.02.08.06c.26.19.54.33.83.42l.04-.11.1.04.04.02s.01,0,.02,0c.12.05.25.1.37.14.08.45,2.03.94,2.51,1.12-.01,0-.04,0-.05,0,.94.35,1.83.68,2.81.88,1.35.27,2.53,1.09,3.81,1.58,1.38.53,2.82.91,4.19,1.47-.06,0-.12,0-.18-.02.52.13.93.49,1.43.67.7.26,1.4.51,2.1.77.78.3,1.55.59,2.33.89.3.12.61.22.92.31,0,0-.02.01-.01.02.48.32,1.05.46,1.6.63.99.3,2.07.57,3.02.96.98.4,2,.73,3.07.48.03,0,.07-.02.1-.02.01,0,.03,0,.04-.01.04-.01.09-.03.13-.04l.24-.09c.33-.12.53-.21.63-.28.16-.06.33-.12.5-.17.55-.19,1.09-.34,1.65-.5-.05.05-.08.11-.13.16.44-.15.89-.3,1.33-.45.38-.13.65-.32,1.02-.44.11-.2.78-.29,1.04-.37,2.29-.69,4.5-1.63,6.79-2.34.01.02.03.05.05.08,1.07-.31,2.13-.62,3.18-.99.54-.19,1.09-.37,1.6-.65.32-.18.64-.44,1.02-.46,0,.02,0,.05,0,.07.37-.05,2.31-.36,2.36-.81,0-.03-.01-.05,0-.08.15-.06,2.22-.84,2.23-.79,0,0,.04.1.04.1.72-.25,1.45-.49,2.18-.74-.02-.04-.02-.08-.03-.12,1.22-.41,2.26-1.11,2.74-2.37.27-.72.36-1.53.52-2.29.17-.84.34-1.67.51-2.51.04-.2.08-.41.13-.61.52-2.55.98-5.1,1.62-7.62l-.06.08.36-1.78c.1-.51.21-1.03.32-1.54.41-1.97.92-3.95,1.14-5.95.03-.27.04-.54.03-.81-.03-.77-.22-1.51-.66-2.19ZM5.55,22.77h0s.13.76.13.76v.05c-.05-.27-.1-.54-.14-.81ZM6.17,26.28s-.02-.09-.03-.13h-.02s-.02-.12-.02-.12l.07.23s0,0-.01.02ZM6.92,30.55c-.01-.05-.02-.1-.04-.15,0,0,0,0,0,0l.06.23s-.01-.05-.02-.08ZM6.95,30.7v.03s0,0,0,0c0-.01,0-.02,0-.03ZM13.65,41.98s-.02,0-.03,0h-.24s-.3-.23-.3-.23c-.05-.04-.17-.1-.35-.18.39.11.54.17.74.3.06.04.12.07.21.11,0,0-.01,0-.02,0ZM19.07,26.85l5.04.05c.08.65-.04.96-.52,1.37.58,1.22,3.41,1.21,4.43.72,1.25-.59,1.72-2.27.64-3.28-1.39-1.3-4.96-.5-6.76-.8l-1.82-1.8,1.06-8.25,8.98.09c.77-.36.95-1.29,2.02-1.01l-.05,4.65-7.37-.08-.42,2.97c1.01.05,2.03-.03,3.04.03,3.35.22,6.01,1.8,5.94,5.54-.09,4.9-4.79,6.64-9.02,5.91-2.98-.51-5.24-3.05-5.18-6.11ZM26.16,41.08c.78-.19.27-.62.84-.84l1.21,1.56c-2.03,1.33-5.26,1.01-6.02-1.58-1.11-3.81,3.18-5.78,6.08-3.71l-1.25,1.53c-.35.07-.27-.5-.38-.65-.12-.17-.91-.28-1.16-.27-2.65.11-2.25,4.67.67,3.96ZM30.74,48.53l-.25-.2c.12.04.24.09.37.13l-.11.07ZM32.08,48.91c-.37-.14-.76-.28-1.14-.43.2.07.39.14.59.2.26.08.83.3.93.35.03.02.07.03.1.05-.16-.06-.32-.12-.48-.18ZM34.05,41.78c.16.3.59.43.49.86l-2.07-.02c.23-.77-.34-1.86-.69-2.58-.14-.29-.59-.42-.43-.92.86.1,2.13.03,1.9-1.15-.22-1.11-1.55-.72-2.4-.8l-.05,4.71s.55.41.38.71l-2.33-.02c-.11-.37.3-.5.37-.73.1-.33.12-5.2.02-5.46-.07-.18-.43-.3-.31-.65l4.07.04c.33,0,1.07.63,1.29.92.81,1.06.72,2.26-.16,3.24-.18.2-.58.28-.59.56.2.4.32.91.52,1.28ZM34.64,33.22c.03-.33-.07-.71.08-1.03.1-.21.98-.86.98-.96l.15-14.27h-1.03c-.44-.49.96-1.94,1.12-1.94l3.94.04-.17,16.21c0,.23,1.87,1.31.95,2.01l-6.01-.06ZM39.32,42.69c.27-.66.34-1.23-.17-1.82-.23-.27-.94-.46-.63-.91h.44s-.43-1.94-.43-1.94l-.4.9c-.16.51-.94,2.94-.85,3.25.05.18.3.25.23.49l-2.07-.02,1.83-6.05-.2-.78,2.78.03-.18.8,1.73,6.06-2.07-.02ZM42.3,49.24v-.03s.01,0,.02,0c0,0,.02,0,.02,0v.02s-.05.02-.05.02ZM47.26,37.87c-.3.16-.66-.39-.71-.39l-2.52-.03c.04.43-.17.98.18,1.29l2.13.02-.02,1.94c-.4.09-.5-.32-.84-.39-.43-.09-1.03.04-1.48-.02.05.46-.09,1.05-.01,1.48.07.41.61.5.5.98l-2.46-.03c-.11-.37.3-.5.37-.73.1-.33.12-5.2.02-5.46-.07-.18-.43-.3-.31-.65l5.17.06-.02,1.94ZM53.72,37.94c-.4.09-.5-.32-.84-.39-.36-.07-.84.03-1.23-.02l-.05,4.58s.55.41.38.71l-2.33-.02c-.16-.3.39-.66.4-.71l.05-4.58c-.89-.21-1.33.25-2.07.37l.02-1.94,5.69.06-.02,1.94ZM53.81,32.48c-2.28,1.11-6.71,1.05-8.97-.1-3.39-1.72-3.95-7.16-.39-9.01v-.25c-1.03-.57-1.68-2.4-1.64-3.56.22-6.35,11.54-6.97,13.09-1.05.44,1.7-.02,3.69-1.49,4.72v.25c3.54,1.99,2.86,7.31-.59,9ZM70.38,21.24s0-.03,0-.04c0-.02,0-.04.01-.06h0s-.02.1-.02.1Z"/>
  <path class="st0" d="M48.53,25c-.77.11-1.96.91-2.21,1.66-1.24,3.63,6.22,4.16,6.24.74.01-2-2.39-2.64-4.03-2.4Z"/>
  <path class="st0" d="M52.24,20.04c.12-1.85-1.97-2.5-3.51-2.27-.71.11-1.71.7-1.95,1.4-1.12,3.28,5.28,3.69,5.46.87Z"/>
</svg>